<svg xmlns="http://www.w3.org/2000/svg" viewBox="0 0 750 500"><defs><style>.cls-1{isolation:isolate;}.cls-2{fill:#a9eedf;opacity:0.19;mix-blend-mode:multiply;}</style></defs><title>wholeblob</title><g class="cls-1"><g id="OBJECTS"><path class="cls-2" d="M135.36,137.06c32-6,82,5,92-34,3.11-14.79-4.67-29-5-43.49H90.8A18.86,18.86,0,0,0,71.94,78.43V176.9A106,106,0,0,1,135.36,137.06Z"/><path class="cls-2" d="M113.45,110.29c21-3.93,53.67,3.27,60.22-22.26,2-9.67-3.06-19-3.26-28.46H84.28A12.35,12.35,0,0,0,71.94,71.92v64.45A69.43,69.43,0,0,1,113.45,110.29Z"/><path class="cls-2" d="M497.36,126.06c-30.5-8.17-64.18-4.78-93.26,8.26-28.17,12.64-64.68,38.75-61.35,73.83,3.18,33.49,38.41,52.1,48.62,82.65,1.72,5.14,2.64,10.78,1.05,16-4,12.94-22.55,20.5-33.38,26.62-14.76,8.36-29.93,16.18-43.32,26.71-25.64,20.16-42,48.24-43.84,81.16H649.34a18.86,18.86,0,0,0,18.86-18.86V155.24a38,38,0,0,1-3.84.82C604.36,168.06,553.36,141.06,497.36,126.06Z"/><path class="cls-2" d="M543.25,210.72c-22.31-6-46.95-3.49-68.21,6.05-20.6,9.24-47.31,28.34-44.87,54,2.32,24.49,28.09,38.11,35.56,60.45,1.26,3.76,1.93,7.89.76,11.68-2.91,9.46-16.49,15-24.4,19.47-10.81,6.11-21.89,11.83-31.69,19.53-18.76,14.75-30.7,35.28-32.07,59.36H654.41a13.79,13.79,0,0,0,13.79-13.79V232.07c-.93.24-1.86.44-2.81.59C621.51,241.44,584.21,221.69,543.25,210.72Z"/><path class="cls-2" d="M581.11,280.57c-15.55-4.17-32.72-2.44-47.55,4.21-14.36,6.44-33,19.76-31.27,37.64,1.62,17.07,19.58,26.56,24.79,42.13a13.53,13.53,0,0,1,.53,8.14c-2,6.6-11.5,10.45-17,13.57-7.53,4.26-15.25,8.25-22.08,13.62-13.07,10.28-21.4,24.59-22.35,41.37H658.58a9.62,9.62,0,0,0,9.62-9.61V295.45a19,19,0,0,1-2,.41C635.65,302,609.66,288.21,581.11,280.57Z"/></g></g></svg>